<svg xmlns="http://www.w3.org/2000/svg" width="20" height="20" viewBox="0 0 20 20">
    <defs>
        <filter id="prefix__a" width="104.6%" height="102.1%" x="-2.3%" y="-1%"
            filterUnits="objectBoundingBox">
            <feOffset in="SourceAlpha" result="shadowOffsetOuter1" />
            <feMorphology in="SourceAlpha" radius="1" result="shadowInner" />
            <feOffset in="shadowInner" result="shadowInner" />
            <feComposite in="shadowOffsetOuter1" in2="shadowInner" operator="out"
                result="shadowOffsetOuter1" />
            <feGaussianBlur in="shadowOffsetOuter1" result="shadowBlurOuter1" stdDeviation="2" />
            <feColorMatrix in="shadowBlurOuter1" result="shadowMatrixOuter1"
                values="0 0 0 0 0 0 0 0 0 0 0 0 0 0 0 0 0 0 0.0953616696 0" />
            <feMerge>
                <feMergeNode in="shadowMatrixOuter1" />
                <feMergeNode in="SourceGraphic" />
            </feMerge>
        </filter>
    </defs>
    <g fill="none" filter="url(#prefix__a)" transform="translate(-282 -27)">
        <g transform="translate(286 31)">
            <circle cx="5.815" cy="3.45" r="1" fill="#CECBCB" />
            <path fill="#CBCBCB"
                d="M6.487 5.663v2.663c0 .37-.3.672-.672.672-.37 0-.672-.301-.672-.672V5.663c0-.37.301-.672.672-.672.372 0 .672.301.672.672z" />
            <path fill="#CECBCB"
                d="M5.815 0C2.604 0 0 2.604 0 5.815c0 3.212 2.604 5.816 5.815 5.816 3.212 0 5.816-2.604 5.816-5.816C11.63 2.604 9.027 0 5.815 0zm3.381 9.196c-1.204 1.225-2.973 1.71-4.634 1.27-1.66-.44-2.958-1.737-3.398-3.397-.44-1.661.045-3.43 1.27-4.635C3.64 1.21 5.408.724 7.07 1.164c1.66.44 2.957 1.737 3.397 3.398.44 1.66-.045 3.43-1.27 4.634z" />
            <path fill="#CECBCB"
                d="M5.815 0C2.604 0 0 2.604 0 5.815c0 3.212 2.604 5.816 5.815 5.816 3.212 0 5.816-2.604 5.816-5.816C11.63 2.604 9.027 0 5.815 0zm3.381 9.196c-1.204 1.225-2.973 1.71-4.634 1.27-1.66-.44-2.958-1.737-3.398-3.397-.44-1.661.045-3.43 1.27-4.635C3.64 1.21 5.408.724 7.07 1.164c1.66.44 2.957 1.737 3.397 3.398.44 1.66-.045 3.43-1.27 4.634z" />
        </g>
    </g>
</svg>