<svg width="50" height="63" xmlns="http://www.w3.org/2000/svg">
    <g fill="none" fill-rule="evenodd">
        <circle fill="#EDF5FF" cx="25" cy="25" r="25" />
        <g fill-rule="nonzero">
            <path
                d="M41.493 49.083H8.59c-.856 0-1.55-.661-1.55-1.478V7.478c0-.816.694-1.478 1.55-1.478h32.902c.855 0 1.549.662 1.549 1.478v40.127c0 .817-.694 1.478-1.55 1.478z"
                fill="#60B7FF" />
            <path
                d="M43.042 7.478v40.127c0 .817-.75 1.478-1.677 1.478h-2.448c.926 0 1.676-.661 1.676-1.478V7.478c0-.816-.75-1.478-1.676-1.478h2.448c.926 0 1.677.662 1.677 1.478z"
                fill="#26A6FE" />
            <path
                d="M34.154 9.667H16.93c-.477 0-.882.34-.935.793-.134 1.159-.73 3.243-3.246 3.84a.903.903 0 0 0-.706.87v24.744c0 .41.29.77.706.87 2.516.597 3.112 2.68 3.246 3.84.053.452.458.793.935.793h17.225c.478 0 .883-.34.935-.793.134-1.16.73-3.243 3.246-3.84a.903.903 0 0 0 .707-.87V15.17c0-.41-.29-.77-.707-.87-2.515-.596-3.112-2.68-3.246-3.84-.052-.452-.457-.792-.935-.792z"
                fill="#F9F7F8" />
            <path
                d="M38 15.216V40.17c0 .413-.303.777-.735.876a4.56 4.56 0 0 0-1.623.703V17.345c0-.413-.335-.694-.735-.877-3.266-1.493-3.587-4.832-3.726-6.002-.054-.457-.477-.8-.973-.8h2.707c.496 0 .917.343.972.8.14 1.17.761 3.271 3.378 3.873.432.1.735.464.735.877z"
                fill="#EFEDEF" />
            <g fill="#9C9C9C">
                <path
                    d="M31.193 17.654H18.89c-.47 0-.85-.336-.85-.751s.38-.751.85-.751h12.302c.469 0 .849.336.849.751s-.38.751-.85.751zM34.222 21.914h-18.36c-.453 0-.82-.337-.82-.752s.367-.751.82-.751h18.36c.453 0 .82.336.82.751s-.367.752-.82.752zM34.222 26.173h-18.36c-.453 0-.82-.337-.82-.752 0-.414.367-.75.82-.75h18.36c.453 0 .82.336.82.75 0 .415-.367.752-.82.752zM34.222 30.432h-18.36c-.453 0-.82-.336-.82-.751s.367-.752.82-.752h18.36c.453 0 .82.337.82.752s-.367.751-.82.751zM34.222 34.692h-18.36c-.453 0-.82-.337-.82-.752s.367-.751.82-.751h18.36c.453 0 .82.336.82.751s-.367.752-.82.752zM29.238 38.95H15.845c-.443 0-.803-.336-.803-.75 0-.416.36-.752.803-.752h13.393c.444 0 .804.336.804.751s-.36.752-.804.752z" />
            </g>
            <g transform="translate(28.313 35.724)">
                <path
                    d="m9.806 14-5.352-2-3.416 7.679c-.145.325.144.672.524.631l2.158-.234a.525.525 0 0 1 .45.168l1.364 1.55c.24.274.712.21.856-.114L9.806 14zM10.245 14l5.352-2 3.416 7.679c.145.324-.144.672-.524.63l-2.158-.233a.525.525 0 0 0-.45.168l-1.364 1.55c-.24.274-.712.21-.856-.115l-3.416-7.678z"
                    fill="#EE6161" />
                <path
                    d="M9.603 14.104 6.047 21.78c-.151.326-.642.389-.892.116l-1.052-1.147 3.425-7.39 2.075.745zM18.222 20.23l-1.782-.195c-.001-.006-.005-.011-.007-.018l-3.163-7.226 2.127-.807 3.336 7.62c.14.324-.14.668-.511.627z"
                    fill="#E94444" />
                <path
                    d="M19.228 8.776c0 1.032-1.593 1.771-2.007 2.668-.429.93.101 2.464-.678 3.165-.779.701-2.483.225-3.516.61-.997.372-1.819 1.807-2.965 1.807-1.147 0-1.969-1.435-2.966-1.807-1.033-.385-2.737.091-3.516-.61-.78-.7-.25-2.234-.678-3.165C2.49 10.547.895 9.808.895 8.776c0-1.032 1.594-1.772 2.007-2.669.429-.93-.101-2.464.678-3.165.779-.701 2.483-.224 3.516-.61C8.094 1.96 8.915.526 10.062.526c1.146 0 1.968 1.434 2.965 1.806 1.033.386 2.737-.09 3.516.61.78.701.25 2.235.678 3.165.414.897 2.007 1.637 2.007 2.669z"
                    fill="#FE9738" />
                <path
                    d="M18.77 8.692c0 1.043-1.576 1.79-1.985 2.696-.423.94.1 2.488-.67 3.197-.769.708-2.455.226-3.476.616-.986.375-1.798 1.825-2.931 1.825-.737 0-1.338-.612-1.938-1.143.912-.263 2.658-2.096 3.502-2.417.991-.378 2.178.202 2.925-.485.747-.686.153-1.671.565-2.583.396-.88 1.405-1.052 1.405-2.064 0-1.01-1.007-1.112-1.403-1.991-.372-.823-.497-3.233-.97-3.984.868.026 1.803-.037 2.321.44.77.71.247 2.258.67 3.198.409.906 1.985 1.653 1.985 2.695z"
                    fill="#FE860A" />
                <ellipse fill="#FFE3CB" cx="10.062" cy="8.776" rx="4.125" ry="3.667" />
                <path
                    d="M14.187 8.75c0 2.039-1.84 3.692-4.11 3.692-1.613 0-3.01-.835-3.682-2.05.612.324 1.324.51 2.085.51 2.27 0 4.11-1.654 4.11-3.693 0-.59-.153-1.147-.427-1.642 1.211.643 2.024 1.827 2.024 3.182z"
                    fill="#FECA9C" />
            </g>
        </g>
    </g>
</svg>